<mxfile host="65bd71144e">
    <diagram name="Page-1" id="iORbgnvBgippz8paIsoZ">
        <mxGraphModel dx="1952" dy="1438" grid="1" gridSize="10" guides="1" tooltips="1" connect="1" arrows="1" fold="1" page="1" pageScale="1" pageWidth="850" pageHeight="1100" math="0" shadow="0">
            <root>
                <mxCell id="0"/>
                <mxCell id="1" parent="0"/>
                <mxCell id="1Ty97zVubNSYN03ZI4ie-52" value="" style="rounded=0;whiteSpace=wrap;html=1;fontFamily=Times New Roman;" parent="1" vertex="1">
                    <mxGeometry x="148" y="20" width="550" height="800" as="geometry"/>
                </mxCell>
                <mxCell id="Ac4uGBZOYyDW821UgbGF-1" value="&lt;font&gt;User&lt;/font&gt;" style="shape=umlActor;verticalLabelPosition=bottom;verticalAlign=top;html=1;outlineConnect=0;fontFamily=Times New Roman;" parent="1" vertex="1">
                    <mxGeometry x="73" y="440" width="30" height="60" as="geometry"/>
                </mxCell>
                <mxCell id="Ac4uGBZOYyDW821UgbGF-2" value="&lt;font&gt;Login&amp;nbsp;&lt;/font&gt;" style="ellipse;whiteSpace=wrap;html=1;fontFamily=Times New Roman;" parent="1" vertex="1">
                    <mxGeometry x="218" y="110" width="70" height="30" as="geometry"/>
                </mxCell>
                <mxCell id="Ac4uGBZOYyDW821UgbGF-4" value="&lt;font&gt;Verification&lt;/font&gt;" style="ellipse;whiteSpace=wrap;html=1;fontFamily=Times New Roman;" parent="1" vertex="1">
                    <mxGeometry x="188" y="40" width="70" height="30" as="geometry"/>
                </mxCell>
                <mxCell id="Ac4uGBZOYyDW821UgbGF-5" value="&lt;font&gt;Registration&lt;/font&gt;" style="ellipse;whiteSpace=wrap;html=1;fontFamily=Times New Roman;" parent="1" vertex="1">
                    <mxGeometry x="288" y="40" width="70" height="30" as="geometry"/>
                </mxCell>
                <mxCell id="Ac4uGBZOYyDW821UgbGF-9" value="" style="endArrow=none;html=1;rounded=0;exitX=1;exitY=0.3333333333333333;exitDx=0;exitDy=0;exitPerimeter=0;entryX=0;entryY=0.5;entryDx=0;entryDy=0;fontFamily=Times New Roman;" parent="1" target="Ac4uGBZOYyDW821UgbGF-2" edge="1">
                    <mxGeometry width="50" height="50" relative="1" as="geometry">
                        <mxPoint x="98" y="460" as="sourcePoint"/>
                        <mxPoint x="348" y="220" as="targetPoint"/>
                    </mxGeometry>
                </mxCell>
                <mxCell id="Ac4uGBZOYyDW821UgbGF-11" value="&lt;font&gt;Schedules&lt;br&gt;&lt;/font&gt;" style="ellipse;whiteSpace=wrap;html=1;fontFamily=Times New Roman;" parent="1" vertex="1">
                    <mxGeometry x="218" y="185" width="70" height="30" as="geometry"/>
                </mxCell>
                <mxCell id="Ac4uGBZOYyDW821UgbGF-12" value="&lt;font&gt;Breed detection&lt;br&gt;&lt;/font&gt;" style="ellipse;whiteSpace=wrap;html=1;fontFamily=Times New Roman;" parent="1" vertex="1">
                    <mxGeometry x="218" y="260" width="70" height="30" as="geometry"/>
                </mxCell>
                <mxCell id="Ac4uGBZOYyDW821UgbGF-13" value="&lt;font&gt;Disease Symptom Analysis&lt;br&gt;&lt;/font&gt;" style="ellipse;whiteSpace=wrap;html=1;fontFamily=Times New Roman;" parent="1" vertex="1">
                    <mxGeometry x="214.25" y="340" width="80" height="50" as="geometry"/>
                </mxCell>
                <mxCell id="Ac4uGBZOYyDW821UgbGF-15" value="" style="endArrow=none;html=1;rounded=0;exitX=1;exitY=0.3333333333333333;exitDx=0;exitDy=0;exitPerimeter=0;entryX=0;entryY=0.5;entryDx=0;entryDy=0;fontFamily=Times New Roman;" parent="1" target="Ac4uGBZOYyDW821UgbGF-11" edge="1">
                    <mxGeometry width="50" height="50" relative="1" as="geometry">
                        <mxPoint x="98" y="460" as="sourcePoint"/>
                        <mxPoint x="218" y="145" as="targetPoint"/>
                    </mxGeometry>
                </mxCell>
                <mxCell id="Ac4uGBZOYyDW821UgbGF-16" value="" style="endArrow=none;html=1;rounded=0;exitX=1;exitY=0.3333333333333333;exitDx=0;exitDy=0;exitPerimeter=0;entryX=0;entryY=0.5;entryDx=0;entryDy=0;fontFamily=Times New Roman;" parent="1" target="Ac4uGBZOYyDW821UgbGF-12" edge="1">
                    <mxGeometry width="50" height="50" relative="1" as="geometry">
                        <mxPoint x="98" y="460" as="sourcePoint"/>
                        <mxPoint x="208" y="235" as="targetPoint"/>
                    </mxGeometry>
                </mxCell>
                <mxCell id="Ac4uGBZOYyDW821UgbGF-17" value="" style="endArrow=none;html=1;rounded=0;exitX=1;exitY=0.3333333333333333;exitDx=0;exitDy=0;exitPerimeter=0;entryX=0;entryY=0.5;entryDx=0;entryDy=0;fontFamily=Times New Roman;" parent="1" target="Ac4uGBZOYyDW821UgbGF-13" edge="1">
                    <mxGeometry width="50" height="50" relative="1" as="geometry">
                        <mxPoint x="98" y="460" as="sourcePoint"/>
                        <mxPoint x="208" y="285" as="targetPoint"/>
                    </mxGeometry>
                </mxCell>
                <mxCell id="Ac4uGBZOYyDW821UgbGF-19" value="&lt;font&gt;Uploading Required data&lt;br&gt;&lt;/font&gt;" style="ellipse;whiteSpace=wrap;html=1;fontFamily=Times New Roman;" parent="1" vertex="1">
                    <mxGeometry x="383" y="330" width="80" height="50" as="geometry"/>
                </mxCell>
                <mxCell id="Ac4uGBZOYyDW821UgbGF-21" value="&lt;font&gt;Notification&lt;br&gt;&lt;/font&gt;" style="ellipse;whiteSpace=wrap;html=1;fontFamily=Times New Roman;" parent="1" vertex="1">
                    <mxGeometry x="378" y="125" width="70" height="30" as="geometry"/>
                </mxCell>
                <mxCell id="Ac4uGBZOYyDW821UgbGF-23" value="&lt;font&gt;Admin&lt;/font&gt;" style="shape=umlActor;verticalLabelPosition=bottom;verticalAlign=top;html=1;outlineConnect=0;fontFamily=Times New Roman;" parent="1" vertex="1">
                    <mxGeometry x="748" y="210" width="30" height="60" as="geometry"/>
                </mxCell>
                <mxCell id="Ac4uGBZOYyDW821UgbGF-24" value="&lt;font&gt;Monitor System Overview&lt;/font&gt;" style="ellipse;whiteSpace=wrap;html=1;fontFamily=Times New Roman;" parent="1" vertex="1">
                    <mxGeometry x="498" y="50" width="90" height="60" as="geometry"/>
                </mxCell>
                <mxCell id="Ac4uGBZOYyDW821UgbGF-29" value="" style="endArrow=none;html=1;rounded=0;entryX=0;entryY=0.3333333333333333;entryDx=0;entryDy=0;entryPerimeter=0;exitX=1;exitY=0.5;exitDx=0;exitDy=0;fontFamily=Times New Roman;" parent="1" source="Ac4uGBZOYyDW821UgbGF-24" target="Ac4uGBZOYyDW821UgbGF-23" edge="1">
                    <mxGeometry width="50" height="50" relative="1" as="geometry">
                        <mxPoint x="428" y="350" as="sourcePoint"/>
                        <mxPoint x="478" y="300" as="targetPoint"/>
                    </mxGeometry>
                </mxCell>
                <mxCell id="Ac4uGBZOYyDW821UgbGF-30" value="&lt;font&gt;Generate reports&lt;/font&gt;" style="ellipse;whiteSpace=wrap;html=1;fontFamily=Times New Roman;" parent="1" vertex="1">
                    <mxGeometry x="368" y="210" width="90" height="40" as="geometry"/>
                </mxCell>
                <mxCell id="Ac4uGBZOYyDW821UgbGF-31" value="&lt;font&gt;Maintain Fair usage&lt;/font&gt;" style="ellipse;whiteSpace=wrap;html=1;fontFamily=Times New Roman;" parent="1" vertex="1">
                    <mxGeometry x="498" y="185" width="90" height="35" as="geometry"/>
                </mxCell>
                <mxCell id="2" value="&lt;font style=&quot;font-size: 9px;&quot;&gt;&amp;lt;&amp;lt;includes&amp;gt;&amp;gt;&lt;/font&gt;" style="endArrow=classic;html=1;entryX=0.5;entryY=1;entryDx=0;entryDy=0;exitX=0.5;exitY=0;exitDx=0;exitDy=0;dashed=1;dashPattern=8 8;fontFamily=Times New Roman;fontSize=9;" parent="1" source="Ac4uGBZOYyDW821UgbGF-2" target="Ac4uGBZOYyDW821UgbGF-4" edge="1">
                    <mxGeometry x="0.24" y="8" width="50" height="50" relative="1" as="geometry">
                        <mxPoint x="238" y="130" as="sourcePoint"/>
                        <mxPoint x="288" y="80" as="targetPoint"/>
                        <mxPoint as="offset"/>
                    </mxGeometry>
                </mxCell>
                <mxCell id="3" value="&amp;lt;&amp;lt;extends&amp;gt;&amp;gt;" style="endArrow=classic;html=1;dashed=1;dashPattern=8 8;fontFamily=Times New Roman;entryX=0.5;entryY=0;entryDx=0;entryDy=0;exitX=0;exitY=1;exitDx=0;exitDy=0;fontSize=9;" parent="1" source="Ac4uGBZOYyDW821UgbGF-5" target="Ac4uGBZOYyDW821UgbGF-2" edge="1">
                    <mxGeometry x="-0.2308" y="10" width="50" height="50" relative="1" as="geometry">
                        <mxPoint x="268" y="130" as="sourcePoint"/>
                        <mxPoint x="358" y="20" as="targetPoint"/>
                        <mxPoint as="offset"/>
                    </mxGeometry>
                </mxCell>
                <mxCell id="5" value="&lt;font style=&quot;font-size: 9px;&quot;&gt;&amp;lt;&amp;lt;includes&amp;gt;&amp;gt;&lt;/font&gt;" style="endArrow=classic;html=1;entryX=0;entryY=0.5;entryDx=0;entryDy=0;exitX=1;exitY=0.5;exitDx=0;exitDy=0;dashed=1;dashPattern=8 8;fontFamily=Times New Roman;fontSize=9;" parent="1" source="Ac4uGBZOYyDW821UgbGF-11" target="Ac4uGBZOYyDW821UgbGF-21" edge="1">
                    <mxGeometry x="-0.0909" y="15" width="50" height="50" relative="1" as="geometry">
                        <mxPoint x="383.0132248969851" y="289.9976736408357" as="sourcePoint"/>
                        <mxPoint x="332.98" y="245.51" as="targetPoint"/>
                        <mxPoint as="offset"/>
                    </mxGeometry>
                </mxCell>
                <mxCell id="8" value="&lt;font style=&quot;font-size: 9px;&quot;&gt;&amp;lt;&amp;lt;includes&amp;gt;&amp;gt;&lt;/font&gt;" style="endArrow=classic;html=1;entryX=0;entryY=0.5;entryDx=0;entryDy=0;exitX=0.978;exitY=0.335;exitDx=0;exitDy=0;dashed=1;dashPattern=8 8;exitPerimeter=0;fontFamily=Times New Roman;fontSize=9;" parent="1" source="Ac4uGBZOYyDW821UgbGF-13" target="Ac4uGBZOYyDW821UgbGF-19" edge="1">
                    <mxGeometry x="-0.0824" y="-9" width="50" height="50" relative="1" as="geometry">
                        <mxPoint x="328.0332248969851" y="454.48767364083574" as="sourcePoint"/>
                        <mxPoint x="278" y="410" as="targetPoint"/>
                        <mxPoint as="offset"/>
                    </mxGeometry>
                </mxCell>
                <mxCell id="9" value="&lt;font style=&quot;font-size: 9px;&quot;&gt;&amp;lt;&amp;lt;includes&amp;gt;&amp;gt;&lt;/font&gt;" style="endArrow=classic;html=1;entryX=0;entryY=0.5;entryDx=0;entryDy=0;exitX=1;exitY=0.5;exitDx=0;exitDy=0;dashed=1;dashPattern=8 8;fontFamily=Times New Roman;fontSize=9;" parent="1" source="Ac4uGBZOYyDW821UgbGF-12" target="Ac4uGBZOYyDW821UgbGF-19" edge="1">
                    <mxGeometry x="0.0345" y="11" width="50" height="50" relative="1" as="geometry">
                        <mxPoint x="338.0332248969851" y="464.48767364083574" as="sourcePoint"/>
                        <mxPoint x="288" y="420" as="targetPoint"/>
                        <mxPoint as="offset"/>
                    </mxGeometry>
                </mxCell>
                <mxCell id="12" value="&lt;font style=&quot;font-size: 9px;&quot;&gt;&amp;lt;&amp;lt;includes&amp;gt;&amp;gt;&lt;/font&gt;" style="endArrow=classic;html=1;entryX=0.5;entryY=0;entryDx=0;entryDy=0;exitX=0.5;exitY=1;exitDx=0;exitDy=0;dashed=1;dashPattern=8 8;fontFamily=Times New Roman;fontSize=9;" parent="1" source="Ac4uGBZOYyDW821UgbGF-24" target="Ac4uGBZOYyDW821UgbGF-31" edge="1">
                    <mxGeometry x="0.224" y="4" width="50" height="50" relative="1" as="geometry">
                        <mxPoint x="617.9999999999985" y="350" as="sourcePoint"/>
                        <mxPoint x="727.9999999999985" y="350" as="targetPoint"/>
                        <mxPoint as="offset"/>
                    </mxGeometry>
                </mxCell>
                <mxCell id="13" value="&lt;font style=&quot;font-size: 9px;&quot;&gt;&amp;lt;&amp;lt;includes&amp;gt;&amp;gt;&lt;/font&gt;" style="endArrow=classic;html=1;entryX=0.5;entryY=0;entryDx=0;entryDy=0;exitX=0.5;exitY=1;exitDx=0;exitDy=0;dashed=1;dashPattern=8 8;fontFamily=Times New Roman;fontSize=9;" parent="1" source="Ac4uGBZOYyDW821UgbGF-24" target="Ac4uGBZOYyDW821UgbGF-30" edge="1">
                    <mxGeometry x="0.211" y="-1" width="50" height="50" relative="1" as="geometry">
                        <mxPoint x="627.9999999999984" y="360" as="sourcePoint"/>
                        <mxPoint x="737.9999999999986" y="360" as="targetPoint"/>
                        <mxPoint as="offset"/>
                    </mxGeometry>
                </mxCell>
                <mxCell id="qObepZuyQJZVWiWu3ma1-17" value="&lt;font&gt;Interact with other users&lt;/font&gt;" style="ellipse;whiteSpace=wrap;html=1;fontFamily=Times New Roman;" parent="1" vertex="1">
                    <mxGeometry x="204.25" y="445" width="97.5" height="50" as="geometry"/>
                </mxCell>
                <mxCell id="qObepZuyQJZVWiWu3ma1-21" value="" style="endArrow=none;html=1;rounded=0;entryX=0;entryY=0.5;entryDx=0;entryDy=0;exitX=1;exitY=0.3333333333333333;exitDx=0;exitDy=0;exitPerimeter=0;fontFamily=Times New Roman;" parent="1" target="qObepZuyQJZVWiWu3ma1-17" edge="1">
                    <mxGeometry width="50" height="50" relative="1" as="geometry">
                        <mxPoint x="98" y="460" as="sourcePoint"/>
                        <mxPoint x="223" y="415" as="targetPoint"/>
                    </mxGeometry>
                </mxCell>
                <mxCell id="qObepZuyQJZVWiWu3ma1-23" value="&amp;lt;&amp;lt;extends&amp;gt;&amp;gt;" style="endArrow=classic;html=1;dashed=1;dashPattern=8 8;fontFamily=Times New Roman;entryX=1;entryY=0.5;entryDx=0;entryDy=0;exitX=0;exitY=0.5;exitDx=0;exitDy=0;fontSize=9;" parent="1" source="qObepZuyQJZVWiWu3ma1-28" edge="1">
                    <mxGeometry x="-0.2398" y="5" width="50" height="50" relative="1" as="geometry">
                        <mxPoint x="371.75" y="474.6600000000001" as="sourcePoint"/>
                        <mxPoint x="306.75" y="474.6600000000001" as="targetPoint"/>
                        <mxPoint as="offset"/>
                    </mxGeometry>
                </mxCell>
                <mxCell id="qObepZuyQJZVWiWu3ma1-28" value="&lt;font&gt;Participate on events&lt;/font&gt;" style="ellipse;whiteSpace=wrap;html=1;fontFamily=Times New Roman;" parent="1" vertex="1">
                    <mxGeometry x="408" y="520" width="90" height="40" as="geometry"/>
                </mxCell>
                <mxCell id="qObepZuyQJZVWiWu3ma1-31" value="&lt;font&gt;Manage &lt;br&gt;Posts&lt;/font&gt;" style="ellipse;whiteSpace=wrap;html=1;fontFamily=Times New Roman;" parent="1" vertex="1">
                    <mxGeometry x="498" y="250" width="100" height="50" as="geometry"/>
                </mxCell>
                <mxCell id="qObepZuyQJZVWiWu3ma1-32" value="&lt;font&gt;Create &lt;br&gt;Events&lt;/font&gt;" style="ellipse;whiteSpace=wrap;html=1;fontFamily=Times New Roman;" parent="1" vertex="1">
                    <mxGeometry x="498" y="330" width="100" height="50" as="geometry"/>
                </mxCell>
                <mxCell id="qObepZuyQJZVWiWu3ma1-36" value="" style="endArrow=none;html=1;rounded=0;exitX=1;exitY=0.5;exitDx=0;exitDy=0;fontFamily=Times New Roman;entryX=0;entryY=0.3333333333333333;entryDx=0;entryDy=0;entryPerimeter=0;" parent="1" source="qObepZuyQJZVWiWu3ma1-32" target="Ac4uGBZOYyDW821UgbGF-23" edge="1">
                    <mxGeometry width="50" height="50" relative="1" as="geometry">
                        <mxPoint x="593" y="250" as="sourcePoint"/>
                        <mxPoint x="678" y="270" as="targetPoint"/>
                    </mxGeometry>
                </mxCell>
                <mxCell id="qObepZuyQJZVWiWu3ma1-38" value="" style="endArrow=none;html=1;rounded=0;entryX=0;entryY=0.3333333333333333;entryDx=0;entryDy=0;entryPerimeter=0;exitX=1;exitY=0.5;exitDx=0;exitDy=0;fontFamily=Times New Roman;" parent="1" source="qObepZuyQJZVWiWu3ma1-31" target="Ac4uGBZOYyDW821UgbGF-23" edge="1">
                    <mxGeometry width="50" height="50" relative="1" as="geometry">
                        <mxPoint x="568" y="380" as="sourcePoint"/>
                        <mxPoint x="618" y="330" as="targetPoint"/>
                    </mxGeometry>
                </mxCell>
                <mxCell id="qObepZuyQJZVWiWu3ma1-40" value="&lt;font&gt;Request Products&lt;/font&gt;" style="ellipse;whiteSpace=wrap;html=1;fontFamily=Times New Roman;" parent="1" vertex="1">
                    <mxGeometry x="213" y="540" width="96.25" height="60" as="geometry"/>
                </mxCell>
                <mxCell id="1Ty97zVubNSYN03ZI4ie-13" value="" style="endArrow=none;html=1;rounded=0;entryX=1;entryY=0.5;entryDx=0;entryDy=0;exitX=0;exitY=0.3333333333333333;exitDx=0;exitDy=0;exitPerimeter=0;fontFamily=Times New Roman;" parent="1" source="Ac4uGBZOYyDW821UgbGF-23" target="Ac4uGBZOYyDW821UgbGF-31" edge="1">
                    <mxGeometry width="50" height="50" relative="1" as="geometry">
                        <mxPoint x="408" y="320" as="sourcePoint"/>
                        <mxPoint x="458" y="270" as="targetPoint"/>
                    </mxGeometry>
                </mxCell>
                <mxCell id="1Ty97zVubNSYN03ZI4ie-15" value="" style="endArrow=none;html=1;rounded=0;entryX=0;entryY=0.5;entryDx=0;entryDy=0;exitX=1;exitY=0.3333333333333333;exitDx=0;exitDy=0;exitPerimeter=0;fontFamily=Times New Roman;" parent="1" target="qObepZuyQJZVWiWu3ma1-40" edge="1">
                    <mxGeometry width="50" height="50" relative="1" as="geometry">
                        <mxPoint x="98" y="460" as="sourcePoint"/>
                        <mxPoint x="227" y="565" as="targetPoint"/>
                    </mxGeometry>
                </mxCell>
                <mxCell id="1Ty97zVubNSYN03ZI4ie-17" value="&lt;font&gt;Fill Adoption Form&lt;/font&gt;" style="ellipse;whiteSpace=wrap;html=1;fontFamily=Times New Roman;" parent="1" vertex="1">
                    <mxGeometry x="214.25" y="630" width="93.75" height="60" as="geometry"/>
                </mxCell>
                <mxCell id="1Ty97zVubNSYN03ZI4ie-20" value="&lt;font&gt;Request Multiple Pets&lt;/font&gt;" style="ellipse;whiteSpace=wrap;html=1;fontFamily=Times New Roman;" parent="1" vertex="1">
                    <mxGeometry x="383" y="580" width="90" height="60" as="geometry"/>
                </mxCell>
                <mxCell id="1Ty97zVubNSYN03ZI4ie-21" value="&lt;font style=&quot;font-size: 11px;&quot;&gt;&lt;font style=&quot;font-size: 11px;&quot;&gt;Survey &lt;/font&gt;&lt;span style=&quot;&quot;&gt;and profile testing&lt;/span&gt;&lt;/font&gt;" style="ellipse;whiteSpace=wrap;html=1;fontFamily=Times New Roman;" parent="1" vertex="1">
                    <mxGeometry x="393" y="720" width="90" height="55" as="geometry"/>
                </mxCell>
                <mxCell id="1Ty97zVubNSYN03ZI4ie-23" value="&amp;lt;&amp;lt;extends&amp;gt;&amp;gt;" style="endArrow=classic;html=1;dashed=1;dashPattern=8 8;fontFamily=Times New Roman;entryX=1;entryY=0.5;entryDx=0;entryDy=0;exitX=0;exitY=0.5;exitDx=0;exitDy=0;fontSize=9;" parent="1" source="1Ty97zVubNSYN03ZI4ie-20" target="1Ty97zVubNSYN03ZI4ie-17" edge="1">
                    <mxGeometry x="-0.2398" y="5" width="50" height="50" relative="1" as="geometry">
                        <mxPoint x="381.75" y="554.6600000000001" as="sourcePoint"/>
                        <mxPoint x="316.75" y="554.6600000000001" as="targetPoint"/>
                        <mxPoint as="offset"/>
                    </mxGeometry>
                </mxCell>
                <mxCell id="1Ty97zVubNSYN03ZI4ie-24" value="&amp;lt;&amp;lt;includes&amp;gt;&amp;gt;" style="endArrow=classic;html=1;dashed=1;dashPattern=8 8;fontFamily=Times New Roman;entryX=0;entryY=0.5;entryDx=0;entryDy=0;exitX=1;exitY=0.5;exitDx=0;exitDy=0;fontSize=9;" parent="1" source="1Ty97zVubNSYN03ZI4ie-17" target="1Ty97zVubNSYN03ZI4ie-21" edge="1">
                    <mxGeometry x="-0.2398" y="5" width="50" height="50" relative="1" as="geometry">
                        <mxPoint x="391.75" y="564.6600000000001" as="sourcePoint"/>
                        <mxPoint x="326.75" y="564.6600000000001" as="targetPoint"/>
                        <mxPoint as="offset"/>
                        <Array as="points">
                            <mxPoint x="348" y="700"/>
                        </Array>
                    </mxGeometry>
                </mxCell>
                <mxCell id="1Ty97zVubNSYN03ZI4ie-37" value="&lt;font&gt;Update Products&lt;/font&gt;" style="ellipse;whiteSpace=wrap;html=1;fontFamily=Times New Roman;" parent="1" vertex="1">
                    <mxGeometry x="508" y="430" width="80" height="50" as="geometry"/>
                </mxCell>
                <mxCell id="1Ty97zVubNSYN03ZI4ie-38" value="&lt;font&gt;Manage Profile&lt;/font&gt;" style="ellipse;whiteSpace=wrap;html=1;fontFamily=Times New Roman;" parent="1" vertex="1">
                    <mxGeometry x="508" y="560" width="80" height="50" as="geometry"/>
                </mxCell>
                <mxCell id="1Ty97zVubNSYN03ZI4ie-39" value="&lt;font&gt;Customer Service&lt;/font&gt;" style="ellipse;whiteSpace=wrap;html=1;fontFamily=Times New Roman;" parent="1" vertex="1">
                    <mxGeometry x="508" y="650" width="80" height="50" as="geometry"/>
                </mxCell>
                <mxCell id="1Ty97zVubNSYN03ZI4ie-40" value="&lt;font&gt;Update Available Pets&lt;/font&gt;" style="ellipse;whiteSpace=wrap;html=1;fontFamily=Times New Roman;" parent="1" vertex="1">
                    <mxGeometry x="528" y="740" width="90" height="60" as="geometry"/>
                </mxCell>
                <mxCell id="1Ty97zVubNSYN03ZI4ie-43" value="&lt;font&gt;Shopkeeper&lt;/font&gt;" style="shape=umlActor;verticalLabelPosition=bottom;verticalAlign=top;html=1;outlineConnect=0;fontFamily=Times New Roman;" parent="1" vertex="1">
                    <mxGeometry x="748" y="480" width="30" height="60" as="geometry"/>
                </mxCell>
                <mxCell id="1Ty97zVubNSYN03ZI4ie-44" value="" style="endArrow=none;html=1;rounded=0;exitX=0;exitY=0.3333333333333333;exitDx=0;exitDy=0;exitPerimeter=0;entryX=1;entryY=0.5;entryDx=0;entryDy=0;fontFamily=Times New Roman;" parent="1" source="1Ty97zVubNSYN03ZI4ie-43" target="1Ty97zVubNSYN03ZI4ie-37" edge="1">
                    <mxGeometry width="50" height="50" relative="1" as="geometry">
                        <mxPoint x="768" y="705" as="sourcePoint"/>
                        <mxPoint x="608" y="660" as="targetPoint"/>
                    </mxGeometry>
                </mxCell>
                <mxCell id="1Ty97zVubNSYN03ZI4ie-45" value="" style="endArrow=none;html=1;rounded=0;exitX=0;exitY=0.3333333333333333;exitDx=0;exitDy=0;exitPerimeter=0;entryX=1;entryY=0.5;entryDx=0;entryDy=0;fontFamily=Times New Roman;" parent="1" source="1Ty97zVubNSYN03ZI4ie-43" target="1Ty97zVubNSYN03ZI4ie-38" edge="1">
                    <mxGeometry width="50" height="50" relative="1" as="geometry">
                        <mxPoint x="748" y="690" as="sourcePoint"/>
                        <mxPoint x="628" y="675" as="targetPoint"/>
                    </mxGeometry>
                </mxCell>
                <mxCell id="1Ty97zVubNSYN03ZI4ie-46" value="" style="endArrow=none;html=1;rounded=0;exitX=0;exitY=0.3333333333333333;exitDx=0;exitDy=0;exitPerimeter=0;entryX=1;entryY=0.5;entryDx=0;entryDy=0;fontFamily=Times New Roman;" parent="1" source="1Ty97zVubNSYN03ZI4ie-43" target="1Ty97zVubNSYN03ZI4ie-39" edge="1">
                    <mxGeometry width="50" height="50" relative="1" as="geometry">
                        <mxPoint x="758" y="700" as="sourcePoint"/>
                        <mxPoint x="638" y="685" as="targetPoint"/>
                    </mxGeometry>
                </mxCell>
                <mxCell id="1Ty97zVubNSYN03ZI4ie-47" value="&lt;font&gt;Adoption Center&lt;/font&gt;" style="shape=umlActor;verticalLabelPosition=bottom;verticalAlign=top;html=1;outlineConnect=0;fontFamily=Times New Roman;" parent="1" vertex="1">
                    <mxGeometry x="748" y="672.5" width="30" height="60" as="geometry"/>
                </mxCell>
                <mxCell id="1Ty97zVubNSYN03ZI4ie-49" value="" style="endArrow=none;html=1;rounded=0;exitX=0;exitY=0.3333333333333333;exitDx=0;exitDy=0;exitPerimeter=0;entryX=1;entryY=0.5;entryDx=0;entryDy=0;fontFamily=Times New Roman;" parent="1" source="1Ty97zVubNSYN03ZI4ie-47" target="1Ty97zVubNSYN03ZI4ie-38" edge="1">
                    <mxGeometry width="50" height="50" relative="1" as="geometry">
                        <mxPoint x="748" y="690" as="sourcePoint"/>
                        <mxPoint x="628" y="675" as="targetPoint"/>
                    </mxGeometry>
                </mxCell>
                <mxCell id="1Ty97zVubNSYN03ZI4ie-50" value="" style="endArrow=none;html=1;rounded=0;exitX=0;exitY=0.3333333333333333;exitDx=0;exitDy=0;exitPerimeter=0;entryX=1;entryY=0.5;entryDx=0;entryDy=0;fontFamily=Times New Roman;" parent="1" source="1Ty97zVubNSYN03ZI4ie-47" target="1Ty97zVubNSYN03ZI4ie-39" edge="1">
                    <mxGeometry width="50" height="50" relative="1" as="geometry">
                        <mxPoint x="758" y="700" as="sourcePoint"/>
                        <mxPoint x="638" y="685" as="targetPoint"/>
                    </mxGeometry>
                </mxCell>
                <mxCell id="1Ty97zVubNSYN03ZI4ie-51" value="" style="endArrow=none;html=1;rounded=0;exitX=0;exitY=0.3333333333333333;exitDx=0;exitDy=0;exitPerimeter=0;entryX=1;entryY=0.5;entryDx=0;entryDy=0;fontFamily=Times New Roman;" parent="1" source="1Ty97zVubNSYN03ZI4ie-47" target="1Ty97zVubNSYN03ZI4ie-40" edge="1">
                    <mxGeometry width="50" height="50" relative="1" as="geometry">
                        <mxPoint x="768" y="710" as="sourcePoint"/>
                        <mxPoint x="648" y="695" as="targetPoint"/>
                    </mxGeometry>
                </mxCell>
                <mxCell id="1Ty97zVubNSYN03ZI4ie-55" value="" style="endArrow=none;html=1;rounded=0;exitX=0;exitY=0.5;exitDx=0;exitDy=0;entryX=1;entryY=0.3333333333333333;entryDx=0;entryDy=0;entryPerimeter=0;fontFamily=Times New Roman;" parent="1" source="1Ty97zVubNSYN03ZI4ie-17" edge="1">
                    <mxGeometry width="50" height="50" relative="1" as="geometry">
                        <mxPoint x="418" y="500" as="sourcePoint"/>
                        <mxPoint x="98" y="460" as="targetPoint"/>
                    </mxGeometry>
                </mxCell>
            </root>
        </mxGraphModel>
    </diagram>
</mxfile>